<svg width="2311" height="1134" xmlns="http://www.w3.org/2000/svg" xmlns:xlink="http://www.w3.org/1999/xlink" xml:space="preserve" overflow="hidden"><defs><clipPath id="clip0"><rect x="694" y="232" width="2311" height="1134"/></clipPath></defs><g clip-path="url(#clip0)" transform="translate(-694 -232)"><path d="M1.14583-4.11602e-07 1.14619 981.75-1.14548 981.75-1.14583 4.11602e-07ZM13.7504 977.167 0.000360892 1004.67-13.7496 977.167Z" transform="matrix(1 0 0 -1 1899 1264.67)"/><path d="M3.15025e-07-1.14583 1289.75-1.14548 1289.75 1.14619-3.15025e-07 1.14583ZM1285.17-13.7496 1312.67 0.000360892 1285.17 13.7504Z" transform="matrix(-1 0 0 1 2034.67 884)"/><path d="M1668.71 577.056C1794.14 450.58 1998.03 448.719 2125.74 572.885" stroke="#000000" stroke-width="6.875" stroke-miterlimit="8" fill="none" fill-rule="evenodd"/><path d="M0 0 657.818 652.768" stroke="#000000" stroke-width="6.875" stroke-miterlimit="8" fill="none" fill-rule="evenodd" transform="matrix(-1 0 0 1 1669.32 577.5)"/><path d="M2126.5 573.5 2776.11 1223.11" stroke="#000000" stroke-width="6.875" stroke-miterlimit="8" fill="none" fill-rule="evenodd"/><path d="M1136.42 1360.42 1006.5 1230.5" stroke="#000000" stroke-width="6.875" stroke-miterlimit="8" fill="none" fill-rule="evenodd"/><path d="M2015.5 728.5 2647.2 1351.37" stroke="#000000" stroke-width="6.875" stroke-miterlimit="8" fill="none" fill-rule="evenodd"/><path d="M0 0 642.154 642.588" stroke="#000000" stroke-width="6.875" stroke-miterlimit="8" fill="none" fill-rule="evenodd" transform="matrix(-1 0 0 1 1778.65 717.5)"/><path d="M0 0 129.921 129.921" stroke="#000000" stroke-width="6.875" stroke-miterlimit="8" fill="none" fill-rule="evenodd" transform="matrix(1 0 0 -1 2645.5 1352.42)"/><path d="M1778.3 717.157C1847.73 659.25 1950.35 664.087 2015.31 728.331" stroke="#000000" stroke-width="6.875" stroke-miterlimit="8" fill="none" fill-rule="evenodd"/><path d="M1519.5 454.5 1900.09 883.964" stroke="#5B9BD5" stroke-width="3.4375" stroke-linejoin="round" stroke-miterlimit="10" stroke-dasharray="13.75 10.3125" fill="none" fill-rule="evenodd"/><path d="M0 0 334.179 450.741" stroke="#5B9BD5" stroke-width="3.4375" stroke-linejoin="round" stroke-miterlimit="10" stroke-dasharray="13.75 10.3125" fill="none" fill-rule="evenodd" transform="matrix(-1 0 0 1 2236.68 433.5)"/><path d="M1902.5 482.5 2815.5 482.5" stroke="#ED7D31" stroke-width="3.4375" stroke-linejoin="round" stroke-miterlimit="10" stroke-dasharray="13.75 10.3125" fill="none" fill-rule="evenodd"/><path d="M1902.5 680.5 2815.5 680.5" stroke="#ED7D31" stroke-width="3.4375" stroke-linejoin="round" stroke-miterlimit="10" stroke-dasharray="13.75 10.3125" fill="none" fill-rule="evenodd"/><path d="M1902.5 884.5 2815.5 884.5" stroke="#ED7D31" stroke-width="3.4375" stroke-linejoin="round" stroke-miterlimit="10" stroke-dasharray="13.75 10.3125" fill="none" fill-rule="evenodd"/><path d="M2611.07 484.635 2611.07 679.501 2609.93 679.501 2609.93 484.635ZM2593.96 511.846 2610.5 483.497 2627.04 511.846C2627.2 512.119 2627.1 512.47 2626.83 512.629 2626.56 512.789 2626.21 512.696 2626.05 512.423L2610.01 484.923 2610.99 484.923 2594.95 512.423C2594.79 512.697 2594.44 512.789 2594.17 512.629 2593.9 512.47 2593.8 512.119 2593.96 511.846ZM2627.04 652.29 2610.5 680.638 2593.96 652.29C2593.8 652.017 2593.9 651.666 2594.17 651.507 2594.44 651.347 2594.79 651.439 2594.95 651.713L2611 679.213 2610.01 679.213 2626.05 651.713C2626.21 651.439 2626.56 651.347 2626.83 651.507 2627.1 651.666 2627.2 652.017 2627.04 652.29Z"/><path d="M2761.07 484.632 2761.07 883.371 2759.93 883.371 2759.93 484.632ZM2743.96 511.846 2760.5 483.497 2777.04 511.846C2777.2 512.119 2777.1 512.47 2776.83 512.629 2776.56 512.789 2776.21 512.697 2776.05 512.423L2760.01 484.923 2761 484.923 2744.95 512.423C2744.79 512.697 2744.44 512.789 2744.17 512.629 2743.9 512.47 2743.8 512.119 2743.96 511.846ZM2777.04 856.157 2760.5 884.505 2743.96 856.157C2743.8 855.883 2743.9 855.533 2744.17 855.373 2744.44 855.214 2744.79 855.306 2744.95 855.579L2761 883.079 2760.01 883.079 2776.05 855.579C2776.21 855.306 2776.56 855.214 2776.83 855.373 2777.1 855.533 2777.2 855.883 2777.04 856.157Z"/><path d="M2652.04 566.925C2654.42 566.925 2656.62 567.193 2658.62 567.73L2657.31 573.8 2654.49 573.8C2654.45 572.439 2654.34 571.454 2654.15 570.846 2653.96 570.237 2653.66 569.78 2653.24 569.476 2652.82 569.172 2652.22 569.019 2651.45 569.019 2649.64 569.019 2648.02 569.74 2646.58 571.181 2645.14 572.623 2643.96 574.664 2643.05 577.304 2642.13 579.945 2641.68 582.483 2641.68 584.918 2641.68 586.744 2642.04 588.1 2642.75 588.987 2643.47 589.873 2644.54 590.316 2645.97 590.316 2647.6 590.316 2649.01 590.007 2650.2 589.389 2651.39 588.772 2652.65 587.8 2653.98 586.476L2655.62 588.114C2653.93 589.976 2652.24 591.336 2650.53 592.196 2648.82 593.055 2646.98 593.485 2645.01 593.485 2642.41 593.485 2640.44 592.715 2639.1 591.175 2637.76 589.635 2637.09 587.398 2637.09 584.461 2637.09 582.546 2637.44 580.442 2638.16 578.15 2638.88 575.859 2639.92 573.844 2641.3 572.108 2642.68 570.371 2644.29 569.073 2646.14 568.214 2647.98 567.354 2649.95 566.925 2652.04 566.925Z" fill-rule="evenodd"/><text fill="#000000" fill-opacity="0" font-family="Arial,Arial_MSFontService,sans-serif" font-size="26.5601" x="2637.09" y="590.165">𝑐</text><path d="M2798.06 564.592C2800.44 564.592 2802.63 564.861 2804.64 565.398L2803.32 571.467 2800.5 571.467C2800.47 570.107 2800.35 569.122 2800.17 568.513 2799.98 567.904 2799.67 567.448 2799.25 567.144 2798.83 566.839 2798.24 566.687 2797.47 566.687 2795.66 566.687 2794.03 567.408 2792.59 568.849 2791.15 570.29 2789.97 572.331 2789.06 574.972 2788.15 577.613 2787.69 580.151 2787.69 582.585 2787.69 584.412 2788.05 585.768 2788.77 586.654 2789.48 587.54 2790.56 587.983 2791.99 587.983 2793.62 587.983 2795.03 587.675 2796.22 587.057 2797.41 586.439 2798.67 585.468 2799.99 584.143L2801.63 585.781C2799.95 587.643 2798.25 589.004 2796.54 589.863 2794.83 590.723 2792.99 591.152 2791.02 591.152 2788.43 591.152 2786.46 590.383 2785.11 588.843 2783.77 587.303 2783.1 585.065 2783.1 582.129 2783.1 580.213 2783.46 578.11 2784.17 575.818 2784.89 573.526 2785.94 571.512 2787.32 569.775 2788.69 568.039 2790.31 566.741 2792.15 565.881 2793.99 565.022 2795.96 564.592 2798.06 564.592Z" fill-rule="evenodd"/><text fill="#000000" fill-opacity="0" font-family="Arial,Arial_MSFontService,sans-serif" font-size="26.5601" x="2783.1" y="587.832">𝑐</text><path d="M2830.97 564.834 2834.51 564.834 2833.73 573.24 2840.63 568.379 2842.38 571.387 2834.73 574.958 2842.38 578.557 2840.63 581.538 2833.73 576.677 2834.51 585.083 2830.97 585.083 2831.77 576.677 2824.84 581.538 2823.07 578.557 2830.75 574.958 2823.07 571.387 2824.84 568.379 2831.77 573.24Z" fill-rule="evenodd"/><text fill="#000000" fill-opacity="0" font-family="Arial,Arial_MSFontService,sans-serif" font-size="20.249" x="2823.07" y="582.552">∗</text><path d="M2984.49 559.275 2974.93 576.194 2985.43 576.194 2984.97 567.546C2984.92 566.365 2984.88 564.888 2984.84 563.115 2984.8 561.343 2984.79 560.063 2984.79 559.275ZM2914.49 559.275 2904.93 576.194 2915.43 576.194 2914.97 567.546C2914.92 566.365 2914.88 564.888 2914.84 563.115 2914.8 561.343 2914.79 560.063 2914.79 559.275ZM2946.35 556.401C2945.4 556.401 2944.4 556.437 2943.34 556.509L2939.9 572.058 2943.07 572.058C2945.67 572.058 2947.72 571.709 2949.22 571.011 2950.73 570.312 2951.92 569.167 2952.79 567.573 2953.67 565.98 2954.11 564.261 2954.11 562.417 2954.11 561.647 2954.04 560.962 2953.9 560.363 2953.75 559.763 2953.56 559.266 2953.33 558.872 2953.1 558.478 2952.8 558.129 2952.45 557.825 2952.09 557.52 2951.64 557.256 2951.1 557.032 2950.57 556.809 2949.94 556.648 2949.24 556.549 2948.53 556.451 2947.57 556.401 2946.35 556.401ZM2877.83 556.401C2876.72 556.401 2875.56 556.428 2874.34 556.482L2870.69 572.756 2873.48 572.756C2875.65 572.756 2877.4 572.533 2878.73 572.085 2880.07 571.637 2881.16 570.944 2882.01 570.004 2882.86 569.064 2883.52 567.949 2883.98 566.66 2884.45 565.371 2884.68 563.957 2884.68 562.417 2884.68 560.34 2884.15 558.818 2883.1 557.852 2882.04 556.885 2880.29 556.401 2877.83 556.401ZM2935.58 554.038 2947.53 554.038C2949.43 554.038 2950.98 554.15 2952.18 554.374 2953.38 554.598 2954.4 554.933 2955.25 555.381 2956.1 555.828 2956.81 556.406 2957.39 557.113 2957.96 557.82 2958.39 558.617 2958.68 559.503 2958.96 560.389 2959.11 561.334 2959.11 562.336 2959.11 565.094 2958.26 567.439 2956.58 569.373 2954.9 571.306 2952.42 572.774 2949.14 573.777L2949.14 574.072C2950 574.717 2950.7 575.487 2951.22 576.382 2951.75 577.277 2952.18 578.521 2952.5 580.115L2953.12 583.23C2953.31 584.215 2953.54 585.101 2953.79 585.889 2954.04 586.676 2954.34 587.303 2954.69 587.769 2955.04 588.234 2955.43 588.583 2955.87 588.816 2956.31 589.049 2956.95 589.237 2957.79 589.38L2957.52 590.696 2950.08 590.696C2949.51 589.102 2949 587.205 2948.55 585.002L2947.37 579.309C2947.17 578.324 2946.94 577.496 2946.66 576.825 2946.38 576.154 2946.05 575.634 2945.66 575.267 2945.28 574.9 2944.83 574.659 2944.32 574.542 2943.81 574.426 2943.19 574.368 2942.46 574.368L2939.39 574.368 2937.51 582.881C2937.35 583.579 2937.24 584.134 2937.18 584.546 2937.12 584.958 2937.06 585.392 2937.02 585.848 2936.97 586.305 2936.95 586.712 2936.95 587.07 2936.95 587.625 2937.04 588.06 2937.22 588.373 2937.4 588.686 2937.67 588.914 2938.02 589.058 2938.38 589.201 2939 589.308 2939.88 589.38L2939.58 590.696 2928.54 590.696 2928.84 589.38C2929.52 589.272 2930.03 589.098 2930.37 588.856 2930.71 588.615 2931 588.279 2931.23 587.849 2931.46 587.419 2931.68 586.896 2931.87 586.278 2932.07 585.66 2932.37 584.465 2932.76 582.693L2937.33 562.014C2937.72 560.224 2937.92 558.809 2937.92 557.771 2937.92 556.894 2937.71 556.285 2937.3 555.945 2936.89 555.605 2936.22 555.408 2935.28 555.354ZM2866.58 554.038 2878.42 554.038C2880.55 554.038 2882.3 554.204 2883.67 554.535 2885.04 554.866 2886.17 555.376 2887.06 556.066 2887.94 556.755 2888.61 557.628 2889.04 558.684 2889.48 559.74 2889.7 560.967 2889.7 562.363 2889.7 565.049 2889.07 567.376 2887.8 569.346 2886.52 571.315 2884.8 572.765 2882.63 573.696 2880.45 574.627 2877.84 575.093 2874.8 575.093 2872.97 575.093 2871.45 575.057 2870.23 574.985L2868.51 582.881C2868.35 583.615 2868.24 584.179 2868.18 584.573 2868.12 584.967 2868.06 585.392 2868.02 585.848 2867.97 586.305 2867.95 586.712 2867.95 587.07 2867.95 587.625 2868.04 588.06 2868.22 588.373 2868.4 588.686 2868.67 588.914 2869.02 589.058 2869.38 589.201 2870 589.308 2870.88 589.38L2870.58 590.696 2859.54 590.696 2859.84 589.38C2860.52 589.272 2861.03 589.098 2861.37 588.856 2861.71 588.615 2862 588.279 2862.23 587.849 2862.46 587.419 2862.68 586.896 2862.87 586.278 2863.07 585.66 2863.37 584.465 2863.76 582.693L2868.33 562.014C2868.72 560.224 2868.92 558.809 2868.92 557.771 2868.92 556.894 2868.71 556.285 2868.3 555.945 2867.89 555.605 2867.22 555.408 2866.28 555.354ZM2984.65 553.608 2988.71 553.608 2990.64 583.552C2990.73 584.967 2990.89 586.072 2991.12 586.869 2991.36 587.666 2991.68 588.256 2992.08 588.641 2992.48 589.026 2993.07 589.272 2993.84 589.38L2993.54 590.696 2982.37 590.696 2982.67 589.38C2983.72 589.29 2984.51 588.879 2985.03 588.145 2985.55 587.41 2985.81 586.121 2985.81 584.277 2985.81 583.579 2985.78 582.818 2985.73 581.995L2985.54 578.53 2973.72 578.53 2972.25 581.162C2971.55 582.397 2971.04 583.458 2970.71 584.344 2970.39 585.231 2970.23 586.014 2970.23 586.694 2970.23 588.198 2971.14 589.093 2972.94 589.38L2972.65 590.696 2961.66 590.696 2961.96 589.38C2962.51 589.308 2963.04 589.089 2963.53 588.722 2964.02 588.355 2964.55 587.8 2965.1 587.057 2965.66 586.314 2966.44 585.083 2967.44 583.364ZM2914.65 553.608 2918.71 553.608 2920.64 583.552C2920.73 584.967 2920.89 586.072 2921.12 586.869 2921.36 587.666 2921.68 588.256 2922.08 588.641 2922.48 589.026 2923.07 589.272 2923.84 589.38L2923.54 590.696 2912.37 590.696 2912.67 589.38C2913.72 589.29 2914.51 588.879 2915.03 588.145 2915.55 587.41 2915.81 586.121 2915.81 584.277 2915.81 583.579 2915.78 582.818 2915.73 581.995L2915.54 578.53 2903.72 578.53 2902.25 581.162C2901.55 582.397 2901.04 583.458 2900.71 584.344 2900.39 585.231 2900.23 586.014 2900.23 586.694 2900.23 588.198 2901.14 589.093 2902.94 589.38L2902.65 590.696 2891.66 590.696 2891.96 589.38C2892.51 589.308 2893.04 589.089 2893.53 588.722 2894.02 588.355 2894.55 587.8 2895.1 587.057 2895.66 586.314 2896.44 585.083 2897.44 583.364Z" fill-rule="evenodd"/><text fill="#000000" fill-opacity="0" font-family="Arial,Arial_MSFontService,sans-serif" font-size="37.0874" x="2859.54" y="586.06">𝑃𝐴𝑅𝐴</text><path d="M1619.71 465.575 1623.08 458.943 1627.78 450.58 1632.86 442.546 1638.3 434.77 1644.04 427.348 1650.15 420.26 1656.49 413.501 1663.12 407.091 1670.04 401.036 1677.2 395.305 1684.65 389.925 1692.26 384.967 1700.11 380.333 1708.1 376.034 1724.75 368.673 1741.95 362.834 1759.62 358.625 1777.77 356.05 1796.08 355.205 1814.56 356.09 1823.86 357.207 1833.12 358.776 1842.32 360.762 1851.53 363.291 1860.67 366.234 1867.63 368.873 1866.81 371.016 1859.96 368.415 1850.92 365.501 1841.84 363.002 1832.74 361.036 1823.59 359.482 1814.45 358.379 1796.19 357.494 1778.09 358.319 1760.15 360.855 1742.68 365.004 1725.67 370.769 1709.18 378.053 1701.27 382.306 1693.51 386.888 1685.99 391.783 1678.63 397.094 1671.55 402.761 1664.71 408.739 1658.16 415.069 1651.88 421.756 1645.85 428.749 1640.18 436.084 1634.8 443.772 1629.78 451.703 1625.12 459.98 1621.76 466.612ZM1648.1 449.792 1619.7 468.121 1617.73 434.378C1617.69 433.746 1618.17 433.204 1618.81 433.167 1619.44 433.13 1619.98 433.612 1620.02 434.244L1621.88 466.026 1620.11 465.131 1646.86 447.867C1647.39 447.524 1648.1 447.677 1648.45 448.208 1648.79 448.74 1648.64 449.449 1648.1 449.792ZM1848.09 344.47 1869.35 370.751 1836.01 376.317C1835.38 376.421 1834.79 376 1834.69 375.375 1834.58 374.751 1835.01 374.161 1835.63 374.057L1867.03 368.814 1866.33 370.665 1846.31 345.911C1845.91 345.419 1845.99 344.697 1846.48 344.299 1846.97 343.901 1847.69 343.978 1848.09 344.47Z"/><path d="M1700.3 306.533 1703.81 306.533 1712.86 336.477C1713.62 338.965 1714.27 340.501 1714.84 341.082 1715.4 341.664 1716.15 342.072 1717.08 342.304L1717.08 343.62 1704.94 343.62 1704.94 342.304C1706.27 342.072 1707.13 341.722 1707.52 341.257 1707.91 340.791 1708.11 340.129 1708.11 339.27 1708.11 338.303 1707.83 336.853 1707.28 334.919L1700.99 313.005 1693.64 334.087C1692.87 336.289 1692.48 337.909 1692.48 338.947 1692.48 340.881 1693.56 342 1695.73 342.304L1695.73 343.62 1684.45 343.62 1684.45 342.304C1685.58 342.089 1686.46 341.539 1687.08 340.653 1687.71 339.766 1688.4 338.312 1689.15 336.289Z" fill-rule="evenodd"/><text fill="#000000" fill-opacity="0" font-family="Arial,Arial_MSFontService,sans-serif" font-size="37.0874" x="1684.45" y="338.984">Λ</text><path d="M1737.55 778.462 1744.58 781.037 1753.49 784.765 1770.59 793.487 1786.75 803.875 1794.42 809.606 1801.79 815.719 1808.84 822.162 1815.59 828.939 1821.97 836.068 1828.04 843.524 1833.73 851.27 1839.09 859.282 1844.01 867.606 1847.49 874.189 1845.46 875.258 1842.04 868.772 1837.19 860.556 1831.88 852.626 1826.26 844.97 1820.26 837.596 1813.96 830.555 1807.3 823.854 1800.33 817.482 1793.05 811.442 1785.51 805.802 1769.55 795.529 1752.61 786.879 1743.79 783.189 1736.77 780.613ZM1756.57 804.795 1735.02 778.755 1768.3 772.814C1768.92 772.703 1769.52 773.118 1769.63 773.741 1769.74 774.364 1769.33 774.959 1768.7 775.07L1737.36 780.665 1738.04 778.807 1758.34 803.334C1758.74 803.822 1758.68 804.544 1758.19 804.948 1757.7 805.351 1756.98 805.283 1756.57 804.795ZM1848.99 842.965 1847.53 876.735 1818.85 858.846C1818.32 858.511 1818.15 857.804 1818.49 857.267 1818.82 856.73 1819.53 856.567 1820.07 856.902L1847.08 873.751 1845.33 874.674 1846.7 842.867C1846.72 842.234 1847.26 841.744 1847.89 841.771 1848.52 841.798 1849.01 842.333 1848.99 842.965Z"/><path d="M1763.85 823.822 1767.37 823.822 1776.42 853.766C1777.17 856.255 1777.83 857.79 1778.4 858.372 1778.96 858.954 1779.71 859.361 1780.64 859.594L1780.64 860.91 1768.5 860.91 1768.5 859.594C1769.82 859.361 1770.68 859.012 1771.08 858.546 1771.47 858.081 1771.67 857.418 1771.67 856.559 1771.67 855.592 1771.39 854.142 1770.84 852.208L1764.55 830.294 1757.19 851.376C1756.42 853.578 1756.04 855.198 1756.04 856.237 1756.04 858.17 1757.12 859.289 1759.29 859.594L1759.29 860.91 1748.01 860.91 1748.01 859.594C1749.14 859.379 1750.01 858.828 1750.64 857.942 1751.27 857.056 1751.96 855.601 1752.71 853.578Z" fill-rule="evenodd"/><text fill="#000000" fill-opacity="0" font-family="Arial,Arial_MSFontService,sans-serif" font-size="37.0874" x="1748.01" y="856.274">Λ</text><path d="M839.5 1065.5 1139.3 1364.31" stroke="#ED7D31" stroke-width="3.4375" stroke-linejoin="round" stroke-miterlimit="10" stroke-dasharray="13.75 10.3125" fill="none" fill-rule="evenodd"/><path d="M1.22285 0.36112 633.387 593.039 632.604 593.875 0.43915 1.19703ZM9.36894 31.4509-0.00193724-0.00181618 31.9892 7.32306C32.2976 7.39368 32.4904 7.70096 32.4198 8.00939 32.3492 8.31782 32.0419 8.51061 31.7335 8.43999L0.699692 1.33432 1.37663 0.612267 10.4671 31.1237C10.5574 31.427 10.3848 31.746 10.0816 31.8364 9.77835 31.9267 9.45928 31.7541 9.36894 31.4509ZM624.479 562.805 633.85 594.258 601.859 586.933C601.55 586.862 601.357 586.555 601.428 586.247 601.499 585.938 601.806 585.745 602.114 585.816L633.148 592.922 632.471 593.644 623.381 563.132C623.29 562.829 623.463 562.51 623.766 562.419 624.069 562.329 624.389 562.502 624.479 562.805Z" transform="matrix(-1 0 0 1 1540.35 508.5)"/><path d="M1171.98 757.027 1173.56 757.027 1166.95 786.756C1166.56 788.529 1166.36 789.853 1166.36 790.731 1166.36 791.447 1166.48 791.966 1166.71 792.288 1166.94 792.611 1167.31 792.772 1167.81 792.772 1168.35 792.772 1168.92 792.552 1169.53 792.114 1170.14 791.675 1171 790.838 1172.11 789.603L1173.64 791.107C1171.9 792.933 1170.49 794.182 1169.38 794.853 1168.28 795.524 1167.05 795.86 1165.69 795.86 1164.53 795.86 1163.6 795.435 1162.9 794.584 1162.2 793.734 1161.85 792.646 1161.85 791.322 1161.85 790.122 1162.1 788.385 1162.6 786.112L1167.41 764.6C1167.63 763.651 1167.78 762.895 1167.87 762.331 1167.96 761.767 1168 761.243 1168 760.76 1168 760.223 1167.9 759.816 1167.71 759.538 1167.51 759.261 1167.23 759.059 1166.86 758.934 1166.49 758.809 1165.83 758.719 1164.89 758.665L1165.21 757.269Z" fill-rule="evenodd"/><text fill="#000000" fill-opacity="0" font-family="Arial,Arial_MSFontService,sans-serif" font-size="38.833" x="1161.85" y="791.006">𝑙</text><path d="M884.465 813.316C885.199 813.316 885.825 813.414 886.344 813.611 886.703 813.754 887.061 813.992 887.419 814.323 887.777 814.654 888.095 815.115 888.372 815.706 888.65 816.297 888.891 816.959 889.097 817.693 889.303 818.427 889.531 819.484 889.782 820.862 890.212 823.172 890.628 825.602 891.031 828.153 891.434 830.705 891.778 833.072 892.065 835.257 893.801 832.75 895.274 830.297 896.482 827.898 897.691 825.499 898.559 823.413 899.087 821.641 899.616 819.868 899.88 818.427 899.88 817.317 899.88 816.476 899.701 815.903 899.343 815.598 898.984 815.294 898.376 815.115 897.516 815.061L897.785 813.745 904.848 813.745 905.573 815.088C904.212 818.812 902.368 822.796 900.041 827.039 897.749 831.193 895.126 835.328 892.172 839.446 889.343 843.367 886.989 846.205 885.109 847.959 883.802 849.159 882.54 850.018 881.323 850.537 880.356 850.931 879.326 851.128 878.234 851.128 877.858 851.128 877.424 851.097 876.932 851.034 876.439 850.972 876.059 850.887 875.79 850.779L876.945 845.569 879.067 845.569C879.067 846.715 879.461 847.288 880.248 847.288 881.287 847.288 882.495 846.639 883.874 845.341 885.252 844.043 886.873 842.087 888.735 839.473 888.215 836.34 887.508 832.562 886.613 828.14 885.664 823.413 885.038 820.486 884.733 819.358 884.357 817.998 883.963 817.129 883.552 816.753 883.301 816.521 882.988 816.404 882.612 816.404 882.039 816.404 881.502 816.637 881 817.102 880.499 817.568 879.881 818.374 879.147 819.519L877.402 818.365C878.637 816.521 879.792 815.218 880.866 814.457 881.94 813.696 883.14 813.316 884.465 813.316Z" fill-rule="evenodd"/><text fill="#000000" fill-opacity="0" font-family="Arial,Arial_MSFontService,sans-serif" font-size="37.8125" x="875.79" y="846.402">𝑦</text><path d="M1952.3 336.845C1952.85 336.845 1953.34 336.907 1953.76 337.033 1954.18 337.158 1954.55 337.35 1954.87 337.61 1955.2 337.87 1955.48 338.205 1955.73 338.617 1955.98 339.029 1956.23 339.588 1956.46 340.295 1956.69 341.003 1956.91 341.88 1957.12 342.927 1957.32 343.975 1957.51 345.062 1957.67 346.19L1957.94 346.19C1959.65 343.773 1960.96 342.005 1961.84 340.886 1962.73 339.767 1963.48 338.935 1964.08 338.389 1964.69 337.843 1965.28 337.458 1965.84 337.234 1966.41 337.01 1967.16 336.898 1968.09 336.898 1968.93 336.898 1969.62 337.006 1970.15 337.22L1969.08 342.081 1967.2 342.081C1967.09 341.329 1966.78 340.953 1966.26 340.953 1966.1 340.953 1965.93 340.98 1965.75 341.034 1965.57 341.088 1965.35 341.204 1965.09 341.383 1964.83 341.562 1964.45 341.911 1963.95 342.43 1963.45 342.95 1962.89 343.585 1962.26 344.337 1961.63 345.089 1960.99 345.877 1960.33 346.7L1958.5 348.983C1958.82 350.702 1959.13 352.188 1959.41 353.441 1959.7 354.694 1959.95 355.737 1960.18 356.57 1960.4 357.402 1960.6 358.06 1960.77 358.544 1960.94 359.027 1961.12 359.39 1961.32 359.631 1961.52 359.873 1961.72 360.043 1961.92 360.142 1962.13 360.24 1962.37 360.289 1962.63 360.289 1963.12 360.289 1963.59 360.101 1964.04 359.725 1964.5 359.349 1965.16 358.499 1966.02 357.174L1967.76 358.329C1966.51 360.191 1965.38 361.502 1964.37 362.263 1963.36 363.024 1962.15 363.405 1960.75 363.405 1959.98 363.405 1959.33 363.266 1958.79 362.988 1958.26 362.711 1957.79 362.268 1957.4 361.659 1957 361.05 1956.65 360.101 1956.35 358.812 1955.8 356.521 1955.46 354.766 1955.33 353.549L1955.06 353.549C1953.16 356.216 1951.75 358.132 1950.83 359.296 1949.91 360.459 1949.15 361.319 1948.55 361.874 1947.95 362.429 1947.37 362.818 1946.8 363.042 1946.24 363.266 1945.49 363.378 1944.56 363.378 1943.72 363.378 1943.03 363.27 1942.49 363.055L1943.57 358.195 1945.45 358.195C1945.55 358.947 1945.87 359.323 1946.39 359.323 1946.64 359.323 1946.9 359.255 1947.18 359.121 1947.46 358.987 1947.86 358.665 1948.37 358.154 1948.89 357.644 1949.61 356.843 1950.52 355.751 1951.44 354.659 1952.76 353.02 1954.5 350.836 1954.23 349.422 1953.95 348.061 1953.67 346.754 1953.38 345.447 1953.08 344.23 1952.78 343.102 1952.47 341.974 1952.22 341.235 1952.03 340.886 1951.83 340.537 1951.62 340.295 1951.4 340.161 1951.17 340.027 1950.89 339.96 1950.55 339.96 1950.17 339.96 1949.83 340.045 1949.53 340.215 1949.22 340.385 1948.89 340.68 1948.54 341.101 1948.18 341.522 1947.7 342.18 1947.11 343.075L1945.37 341.92C1946.49 340.219 1947.58 338.948 1948.62 338.107 1949.65 337.265 1950.88 336.845 1952.3 336.845Z" fill-rule="evenodd"/><text fill="#000000" fill-opacity="0" font-family="Arial,Arial_MSFontService,sans-serif" font-size="26.5601" x="1942.49" y="360.085">𝑥</text></g></svg>